# File created by Blade
# Date/Time:  Wed Jan 21 14:43:55 2015
# Frame Rate: 120.000 fps
#------------------------------------------------------
:FULLY-SPECIFIED
:DEGREES
1252
root 22.464103 35.520079 -19.483339 -168.560609 -5.193548 185.072183
Spine -15.456217 0.648318 -17.921571
Head 26.237247 -9.031216 -18.947492
LeftShoulder -11.375410 -54.893143 39.232080
LeftArm 52.480647 -29.268606 -16.578890
LeftForeArm -63.069295 -0.000000 74.551373
LeftHand 0.972605 -0.000000 -11.607977
LeftHandThumb1 -26.253704 0.000000 33.147579
RightShoulder -10.596744 26.291376 -54.213681
RightArm 99.088446 70.091867 67.243888
RightForeArm 30.276358 0.000000 88.960914
RightHand 9.032656 -0.000000 -3.322032
RightHandThumb1 -24.326973 -0.000000 -32.862282
LeftUpLeg -7.396637 14.401695 9.864216
LeftLeg -7.049697 -0.000000 0.000000
LeftFoot -14.761735 24.354081 -14.674642
LeftToeBase 28.819230 -0.000000 -0.000000
RightUpLeg -6.288489 -7.159432 8.675795
RightLeg -3.750145 -0.000000 0.000000
RightFoot -19.310360 -24.354781 16.007217
RightToeBase 23.611938 -0.000000 -0.000000
1253
root 22.328421 35.535462 -19.493843 -168.637683 -5.123119 184.908538
Spine -15.593507 0.608478 -17.417078
Head 25.855099 -8.984733 -18.457954
LeftShoulder -11.429058 -54.702234 39.180751
LeftArm 52.377077 -29.530625 -16.691474
LeftForeArm -62.204842 0.000000 74.310999
LeftHand 0.848131 0.000000 -10.921803
LeftHandThumb1 -26.253704 0.000000 33.147579
RightShoulder -10.523417 26.244434 -54.003961
RightArm 97.781326 70.486936 66.692716
RightForeArm 29.550083 -0.000000 88.406375
RightHand 8.537129 0.000000 -3.829655
RightHandThumb1 -24.326973 -0.000000 -32.862282
LeftUpLeg -7.239995 14.262811 9.530181
LeftLeg -7.056491 -0.000000 0.000000
LeftFoot -14.847533 24.393889 -14.699155
LeftToeBase 28.728201 -0.000000 -0.000000
RightUpLeg -6.249232 -7.399155 8.306834
RightLeg -3.617070 -0.000000 0.000000
RightFoot -19.305003 -24.103806 16.249629
RightToeBase 23.478204 -0.000000 -0.000000
1254
root 22.190959 35.550587 -19.503476 -168.735940 -5.053572 184.753731
Spine -15.702194 0.577816 -16.897418
Head 25.472111 -8.963281 -17.947053
LeftShoulder -11.521639 -54.613483 39.206649
LeftArm 52.166789 -29.710150 -16.798905
LeftForeArm -61.136793 -0.000000 74.212386
LeftHand 0.570237 -0.000000 -10.239093
LeftHandThumb1 -26.253704 0.000000 33.147579
RightShoulder -10.448311 26.202258 -53.728571
RightArm 96.926698 70.786827 66.536426
RightForeArm 29.083100 -0.000000 87.706758
RightHand 8.189864 -0.000000 -3.881648
RightHandThumb1 -24.326973 -0.000000 -32.862282
LeftUpLeg -7.081753 14.221391 9.189924
LeftLeg -7.036591 -0.000000 0.000000
LeftFoot -14.931447 24.317824 -14.701784
LeftToeBase 28.670968 -0.000000 -0.000000
RightUpLeg -6.166191 -7.548400 7.936195
RightLeg -3.525324 -0.000000 0.000000
RightFoot -19.321982 -24.041742 16.348003
RightToeBase 23.664377 -0.000000 -0.000000
1255
root 22.054407 35.564013 -19.510991 -168.817808 -4.967402 184.602264
Spine -15.850080 0.568393 -16.375757
Head 25.138899 -8.784017 -17.360977
LeftShoulder -11.475492 -54.546997 39.135261
LeftArm 51.853757 -29.874193 -16.696896
LeftForeArm -60.045327 -0.000000 74.072231
LeftHand 0.467743 -0.000000 -9.595923
LeftHandThumb1 -26.253704 0.000000 33.147579
RightShoulder -10.208958 25.972826 -53.373604
RightArm 96.042504 71.296503 66.230634
RightForeArm 28.315788 -0.000000 86.929441
RightHand 7.905354 -0.000000 -4.391250
RightHandThumb1 -24.326973 -0.000000 -32.862282
LeftUpLeg -6.919361 14.098913 8.865195
LeftLeg -7.048695 -0.000000 0.000000
LeftFoot -15.021097 24.364890 -14.700186
LeftToeBase 28.547974 -0.000000 -0.000000
RightUpLeg -6.102045 -7.679927 7.569310
RightLeg -3.442962 -0.000000 0.000000
RightFoot -19.326263 -23.960083 16.506149
RightToeBase 23.684958 -0.000000 -0.000000
1256
root 21.918851 35.578458 -19.520977 -168.913776 -4.876363 184.445691
Spine -15.948422 0.577856 -15.883370
Head 24.789679 -8.888326 -16.917624
LeftShoulder -11.564306 -54.592329 39.158399
LeftArm 51.637929 -29.932156 -16.650496
LeftForeArm -59.151185 -0.000000 73.814646
LeftHand 0.372052 -0.000000 -9.163687
LeftHandThumb1 -26.253704 0.000000 33.147579
RightShoulder -10.165883 25.923580 -53.156112
RightArm 94.640677 71.557662 65.515509
RightForeArm 27.596669 -0.000000 86.203445
RightHand 7.374643 -0.000000 -5.195617
RightHandThumb1 -24.326973 -0.000000 -32.862282
LeftUpLeg -6.756879 14.055367 8.531166
LeftLeg -7.026474 -0.000000 0.000000
LeftFoot -15.095458 24.307466 -14.713695
LeftToeBase 28.486379 -0.000000 -0.000000
RightUpLeg -6.035410 -7.865094 7.208363
RightLeg -3.334074 -0.000000 0.000000
RightFoot -19.320238 -23.816572 16.668884
RightToeBase 23.642806 -0.000000 -0.000000
1257
root 21.782420 35.591707 -19.530628 -169.018353 -4.793103 184.286812
Spine -16.011296 0.560855 -15.396201
Head 24.405201 -8.957452 -16.427452
LeftShoulder -11.841122 -54.681173 39.384134
LeftArm 51.408048 -29.900983 -16.647836
LeftForeArm -58.543269 -0.000000 73.557427
LeftHand 0.327316 -0.000000 -8.789893
LeftHandThumb1 -26.253704 0.000000 33.147579
RightShoulder -10.105804 25.951685 -52.886627
RightArm 92.900193 71.781137 64.385870
RightForeArm 26.299646 -0.000000 85.395915
RightHand 6.979111 -0.000000 -6.261016
RightHandThumb1 -24.326973 -0.000000 -32.862282
LeftUpLeg -6.579777 13.958661 8.205564
LeftLeg -7.017630 -0.000000 0.000000
LeftFoot -15.163097 24.289699 -14.714054
LeftToeBase 28.401135 -0.000000 -0.000000
RightUpLeg -5.945897 -8.035910 6.840421
RightLeg -3.255637 -0.000000 0.000000
RightFoot -19.318382 -23.717848 16.799658
RightToeBase 23.694595 -0.000000 -0.000000
